<svg xmlns="http://www.w3.org/2000/svg" viewBox="0 0 119.85 119.96"><defs><style>.cls-1{fill:#c52126;}</style></defs><g id="Layer_2" data-name="Layer 2"><g id="Layer_1-2" data-name="Layer 1"><path class="cls-1" d="M119.85,35.4V84.45c-.13.14-.09.32-.09.48,0,.74-.06,1.48-.12,2.22-.12,1.38-.23,2.77-.44,4.14a36.57,36.57,0,0,1-1.58,6.63,31.07,31.07,0,0,1-10.77,14.92A31.81,31.81,0,0,1,96.18,118a43.08,43.08,0,0,1-6.26,1.25c-1.55.2-3.1.33-4.65.42-2,.11-3.9.11-5.84.13q-17.22.18-34.44.09c-3.51,0-7-.07-10.51-.32a61.16,61.16,0,0,1-6.46-.76A39.21,39.21,0,0,1,21.28,117,30.41,30.41,0,0,1,7.34,106.75,31.9,31.9,0,0,1,2,95.67a48.68,48.68,0,0,1-1.54-10c-.09-1.48-.15-3-.21-4.45C.12,77.75.06,74.3,0,70.85c-.08-8,0-16,.05-24,0-3,.09-6,.21-9,.07-1.67.12-3.34.24-5a44.82,44.82,0,0,1,.9-6.43A34.23,34.23,0,0,1,5,16.75a30,30,0,0,1,8.06-9.38A32.19,32.19,0,0,1,21.5,2.83,38.18,38.18,0,0,1,31.4.62C33,.49,34.51.44,36.06.38s3-.11,4.56-.16c2.48-.09,5-.17,7.45-.18C55.84,0,63.61,0,71.38,0l.73,0,.38,0c3.06,0,6.12.07,9.18.21q3.56.15,7.1.43a40.58,40.58,0,0,1,6.41,1,32.16,32.16,0,0,1,9.66,4.13A30.3,30.3,0,0,1,116.57,19.5a41.12,41.12,0,0,1,3.05,12.68c.07.7.1,1.41.15,2.11A3.21,3.21,0,0,0,119.85,35.4ZM59.56,109.15l5.43-.06c5.38-.07,10.75,0,16.13-.16,2.36-.06,4.71-.15,7-.44A34.31,34.31,0,0,0,94,107.25,19.71,19.71,0,0,0,104.3,100a21.89,21.89,0,0,0,3.64-8,40.59,40.59,0,0,0,1-7.36c.07-1.41.12-2.82.16-4.23.06-2.11.15-4.22.16-6.33,0-5.88,0-11.76-.05-17.63-.06-6.14-.1-12.27-.17-18.41a48,48,0,0,0-.66-7.75,29.28,29.28,0,0,0-1.33-5.21,19.49,19.49,0,0,0-9.28-10.79,25.36,25.36,0,0,0-8.1-2.6A46.56,46.56,0,0,0,84,11.18c-3.7-.17-7.41-.29-11.12-.32-4.32,0-8.64,0-13,0-7.81,0-15.62,0-23.42.32a51.65,51.65,0,0,0-6.58.67A27,27,0,0,0,25.27,13a20.3,20.3,0,0,0-7,4.28,20.65,20.65,0,0,0-5,7.52,28.38,28.38,0,0,0-1.78,8.34c-.06.85-.09,1.7-.15,2.55-.14,2.17-.22,4.33-.27,6.5-.07,2.93-.1,5.86-.11,8.79,0,6.17,0,12.34,0,18.51,0,4.73.06,9.46.24,14.18a48.81,48.81,0,0,0,.57,6,28.27,28.27,0,0,0,1.25,5,19.66,19.66,0,0,0,10.39,11.53,25.51,25.51,0,0,0,9,2.35c1.83.16,3.67.25,5.5.32,3.41.14,6.82.25,10.23.26Z"/><path class="cls-1" d="M119.77,34.29h.08V35.4A3.21,3.21,0,0,1,119.77,34.29Z"/><path class="cls-1" d="M91,60A30.89,30.89,0,1,1,60,29.18,31,31,0,0,1,91,60ZM80.1,60a20,20,0,1,0-20,20A20,20,0,0,0,80.1,60Z"/><path class="cls-1" d="M92.18,35.23a7.34,7.34,0,0,1-7.28-7.3,7.25,7.25,0,1,1,7.28,7.3Z"/></g></g></svg>