<svg xmlns="http://www.w3.org/2000/svg" viewBox="0 0 119.99 120"><defs><style>.cls-1{fill:#c52126;}</style></defs><g id="Layer_2" data-name="Layer 2"><g id="Layer_1-2" data-name="Layer 1"><path class="cls-1" d="M0,36.35c1-.23.72-1.18.93-1.78C3.72,26.47,9.45,22,18.08,21.66c11.43-.48,22.86-.35,34.29,0,2.3.06,4,.68,4.09,3.18s-1.6,3.82-4,3.86c-5.2.07-10.39-.1-15.59-.08q-9.19,0-18.39.2c-6.24.1-11,4.47-11,10.74q-.18,31.83,0,63.66c0,6.06,3.31,9.29,9.35,9.33q31.83.19,63.66,0c6.08,0,10.46-4.65,10.68-10.76.37-10.29.34-20.58,0-30.87A14.21,14.21,0,0,1,91.67,66a3.38,3.38,0,0,1,3.88-2.39,3,3,0,0,1,2.83,3.16c.35,12.57.51,25.15-.07,37.71-.3,6.6-6.5,12.91-13.46,14.83-.62.17-1.54-.3-1.83.73H82.4c-.68-1.21-1.85-.69-2.79-.69q-31.24,0-62.48,0c-.93,0-2.11-.57-2.77.69h-.63c-.11-.68-.69-.66-1.16-.78A15.27,15.27,0,0,1,.78,107.43c-.12-.47-.1-1.06-.78-1.16V101.9c1-.81.59-1.93.59-2.91q0-28.62,0-57.24c0-1,.4-2.1-.59-2.91Z"/><path class="cls-1" d="M119.85,40.09c-1.29,1.76-2.8,3.07-5.18,2.19-2.22-.83-2.21-2.78-2.22-4.68,0-8,0-16,0-24.14-1.43,0-1.94,1.16-2.67,1.89Q87.09,38.06,64.42,60.82a18,18,0,0,1-2.83,2.41,3.56,3.56,0,0,1-4.78-4.9,14.46,14.46,0,0,1,2-2.37Q81.2,33.6,103.62,11.28c1.1-1.1,2.31-2.08,3.51-3.15-.78-1.38-2.06-.75-3.06-.75-7.58,0-15.17,0-22.76,0-2,0-3.57-.64-3.77-2.81-.18-2,.22-3.82,2.84-3.9l34.39.07c.7,0,1.47.13,2-.6q3.93-.81,3.12,3.12c-.83.59-.6,1.48-.6,2.28q0,15.83,0,31.65c0,.8-.23,1.69.6,2.28Z"/><path class="cls-1" d="M14.36,120c.66-1.26,1.84-.69,2.77-.69q31.23,0,62.48,0c.94,0,2.11-.52,2.79.69Z"/><path class="cls-1" d="M0,38.84c1,.81.59,1.93.59,2.91Q.62,70.37.59,99c0,1,.4,2.1-.59,2.91Z"/><path class="cls-1" d="M116.73.14c-.49.73-1.26.6-2,.6L80.38.67a2,2,0,0,1,.14-.53Z"/></g></g></svg>