<svg xmlns="http://www.w3.org/2000/svg" viewBox="0 0 504.76 1104.33"><defs><style>.cls-1{fill:#fff;}</style></defs><g id="Layer_2" data-name="Layer 2"><g id="Layer_1-2" data-name="Layer 1"><path class="cls-1" d="M331.15,265.51c0,52.51,20.42,86.07,58.36,128.37l49.58,56.9L504.76,419V752.3L382.2,612.7l-46.68,23.35C198.39,704.61,163.39,738.16,163.39,808.18c0,87.54,49.6,145.89,129.84,145.89h134.2c28.76,0,53.5-3.48,77.33-13.09V1098.9c-24.68,4.2-50.5,5.43-78.77,5.43H259.68C118.16,1104.33,0,1021.18,0,830.06,0,701.7,54,631.68,258.2,536.85l40.85-19L248,458.07c-49.6-55.44-83.15-121.08-83.15-208.61C164.84,112.33,252.36,0,414.3,0h90.46V145.88H443.49C364.7,145.88,331.15,198.4,331.15,265.51Z"/></g></g></svg>