<svg xmlns="http://www.w3.org/2000/svg" viewBox="0 0 128.3 128.33"><defs><style>.cls-1{fill:#fff;}</style></defs><g id="Layer_2" data-name="Layer 2"><g id="Layer_1-2" data-name="Layer 1"><path class="cls-1" d="M8,0H120.3c.08.07.16.2.25.21,4,.53,7.75,4.45,7.74,9.77q-.14,54.23,0,108.45a9.76,9.76,0,0,1-10,9.9c-16.25-.09-32.49,0-48.74,0h-60A9.29,9.29,0,0,1,0,119Q0,64.16,0,9.28C0,5.36,2,2.57,5.54.88,6.31.52,7.15.29,8,0ZM68.49,56.5l-.3-.11c0-2.35,0-4.69,0-7,0-.93-.24-1.22-1.2-1.21q-7.91.06-15.8,0c-.91,0-1.24.19-1.24,1.18q0,29.37,0,58.76c0,1,.37,1.16,1.24,1.15,5.43,0,10.86,0,16.29,0,1.15,0,1.54-.2,1.53-1.47-.06-10,0-20,0-30a26.28,26.28,0,0,1,.59-5.81c1.39-6.17,5.5-9.13,11.85-8.58,4.25.36,6.79,2.45,8,6.55a27.71,27.71,0,0,1,.89,7.69q0,15.21,0,30.4c0,1,.22,1.28,1.24,1.27q8.2-.07,16.4,0c1,0,1.34-.22,1.34-1.31,0-10.61,0-21.22,0-31.83a61.15,61.15,0,0,0-1.2-13.43c-1.63-7.32-5.43-12.77-13-15a32.63,32.63,0,0,0-9.59-1.07,19.62,19.62,0,0,0-13.17,5.17A20.59,20.59,0,0,0,68.49,56.5ZM19,78.78c0,9.78,0,19.55,0,29.32,0,.89.22,1.15,1.13,1.14q8.37-.06,16.76,0c.87,0,1.15-.2,1.15-1.11q0-29.38,0-58.77c0-.92-.23-1.22-1.2-1.22-5.51,0-11,.06-16.52,0-1,0-1.33.26-1.33,1.32C19,59.23,19,69,19,78.78Zm20.52-50a11,11,0,1,0-11,11A11,11,0,0,0,39.53,28.75Z"/></g></g></svg>