<svg xmlns="http://www.w3.org/2000/svg" viewBox="0 0 162.74 122.06"><defs><style>.cls-1{fill:#fff;}</style></defs><g id="Layer_2" data-name="Layer 2"><g id="Layer_1-2" data-name="Layer 1"><path class="cls-1" d="M162.12,12.46a17.13,17.13,0,0,0-8.36-10.41l-1.21-.7L147.8.05,143,0h-124L15.25,0a31.28,31.28,0,0,0-5.7,1.66L6.08,3.92,4.77,5.14,2.28,8.37,0,14v95c1.23.83,1,2.36,1.64,3.47a18.42,18.42,0,0,0,10.16,8.85c.89-.07,1.58.88,2.53.5.95.07,1.89.2,2.84.2l128.12,0a17.42,17.42,0,0,0,6.2-1,2.39,2.39,0,0,1,1.39-.22l4.12-2.91.32-.29,3.07-3.78c.56-1.35,1.15-2.69,1.68-4,.14-.35.21-.7.67-.74V14.66C162.17,14,162.34,13.19,162.12,12.46ZM14.66,7.09a14,14,0,0,1,4.71-.28H143a7.68,7.68,0,0,1,3.2.16l.94.07.64,0c2.63.62,2.64.63.85,2.58-1.24,1.35-2.5,2.68-3.76,4a4.87,4.87,0,0,1-1.53,1.63,24.06,24.06,0,0,1-3.19,3.5,3.31,3.31,0,0,1-1.1,1.22,20.51,20.51,0,0,1-2.68,2.91,5.75,5.75,0,0,1-1.45,1.62l-3.21,3.5h0a2.32,2.32,0,0,1-1,1l-.44.52a4.18,4.18,0,0,1-1.24,1.34,5.17,5.17,0,0,1-1.34,1.5,25.07,25.07,0,0,1-2.94,3.24c-.7.73-1.39,1.47-2.08,2.2a19.7,19.7,0,0,1-3.19,3.51l-.91,1a35.32,35.32,0,0,1-3.81,4.21l-.3.39a25.74,25.74,0,0,1-4.62,4.47,4.53,4.53,0,0,1-1,1.74c-2,2.09-3.82,4.41-6,6.34a3.92,3.92,0,0,1-1.14,1.29,14.85,14.85,0,0,1-2.6,2.83,4.61,4.61,0,0,1-1.42,1.62,24.61,24.61,0,0,1-3.61,3.82A10.11,10.11,0,0,1,90.56,72a12,12,0,0,1-4.75,2,15.53,15.53,0,0,1-4.74.58,12.28,12.28,0,0,1-4.79-.83A15.7,15.7,0,0,1,68,68.56Q58.11,57.86,48.3,47.11a4.94,4.94,0,0,1-.44-.65l-.21-.23a36.78,36.78,0,0,1-4.13-4.52l-.6-.61A39.47,39.47,0,0,1,39,36.76h0a1.56,1.56,0,0,1-.78-.8l-.08,0C17.28,15.05,12.1,8.59,12.81,7.8A5.49,5.49,0,0,1,14.66,7.09Zm-5.15,101c-.5.51-.95,1.46-1.66,1.24s-.68-1.23-.8-1.93a11.61,11.61,0,0,1-.29-3.76c0-1.69,0-3.37,0-5.06,0-1.49,0-3,0-4.48V27.35c.12-4.8-.64-9.67.87-14.72l1.93,2.29a2.45,2.45,0,0,1,.93,1,62,62,0,0,1,4.88,5.37.77.77,0,0,1,.57.63C19,25.18,22,28.42,25,31.69Q35.65,43.32,46.28,55c.18.2.32.42.48.63a2.16,2.16,0,0,1,.92,1l3.66,4c1.29,1.38,2.52,2.81,3.88,4.11.82.77.74,1.25-.14,1.77a5.91,5.91,0,0,1-1.95,1.63,18.44,18.44,0,0,1-3.15,3,8.65,8.65,0,0,1-2,1.76,11.39,11.39,0,0,1-2.45,2.25,11.71,11.71,0,0,1-2.34,2.16q-6.58,6-13.17,12.08c-3.58,3.27-7.19,6.52-10.79,9.78a25.85,25.85,0,0,1-4.94,4.28l-.26.25C12.85,105.43,11.07,106.63,9.51,108.06Zm139.23,6.66a13.74,13.74,0,0,1-5.7.57H23.82c-3.65,0-7.33.41-11.19-.91L18.71,109l.67-.62,4.14-3.8a2.26,2.26,0,0,1,1.08-.92,27.23,27.23,0,0,1,3.58-3.29,8.59,8.59,0,0,1,2-1.85A17.53,17.53,0,0,1,33,96l1.7-1.55,3.1-2.88a11.22,11.22,0,0,1,2.47-2.19A12.78,12.78,0,0,1,42.88,87c.56-1,1.72-1.23,2.35-2.11.09-.24.2-.45.49-.4A11.86,11.86,0,0,1,48.31,82a3,3,0,0,1,1.06-1.13l0,0,10-9,.51-.48c.54-.81,1-.45,1.46.09,1.44,1.53,2.93,3,4.4,4.52l.87.68a28.55,28.55,0,0,0,9.61,4.44c1.3.73,2.81,0,4.14.56l5.35-.5c1,.44,1.62-.59,2.51-.65a8.91,8.91,0,0,0,1.65-.43l1.6-.64,2.94-1.63,4-3.15a4.07,4.07,0,0,1,1.32-1.29c2.11-2.93,2.11-2.93,4.7-.54l10.31,9.47a9.64,9.64,0,0,1,2.16,2,14.55,14.55,0,0,1,2.66,2.48c.61,1.23,2.09,1.48,2.85,2.55a10.75,10.75,0,0,1,2.15,1.95,12.94,12.94,0,0,1,2.64,2.48,5.06,5.06,0,0,1,1.83,1.61,22.06,22.06,0,0,1,3.49,3.2l1.71,1.56a.6.6,0,0,1,.53.45l.93.86a7.79,7.79,0,0,1,2,1.85,2.59,2.59,0,0,1,1,.94l4.31,3.87.3.31a8.69,8.69,0,0,1,.75.57c2,1.76,3.88,3.52,5.83,5.3A1.49,1.49,0,0,1,148.74,114.72Zm7.11-8.45c-.09,1.08-.13,2.62-1,2.92-.75.25-1.62-1.1-2.36-1.83-.15-.15-.28-.31-.42-.47a20.88,20.88,0,0,1-3.27-3,3.6,3.6,0,0,1-1.31-1.23,23.62,23.62,0,0,1-3.84-3.5L141.12,97a16.94,16.94,0,0,1-2.7-2.45l-.7-.63L133.49,90l-.65-.6c-3.11-2.52-6-5.3-8.89-8a8.71,8.71,0,0,1-2-1.89L119.17,77l-2-2a.16.16,0,0,1-.18-.17l-.4-.33L114,72.24l-2.15-2L110.54,69l-.27-.23-3.06-2.7c-.39-.35-.72-.73.09-1a7.37,7.37,0,0,1,2-2.19,10.5,10.5,0,0,1,2.26-2.49A13.9,13.9,0,0,1,114,57.72a12.83,12.83,0,0,1,2.28-2.49,9.58,9.58,0,0,1,2.26-2.45,11.86,11.86,0,0,1,2.07-2.29h0l.78-.88a11.89,11.89,0,0,1,2.14-2.34,1.79,1.79,0,0,1,.85-.93l4-4.4.61-.62c3.27-3.87,6.75-7.55,10.18-11.26,2.32-2.52,4.5-5.16,7-7.5l1.57-1.79c2.36-2.62,4.71-5.25,7.16-8a4.33,4.33,0,0,1,.79,2.2.41.41,0,0,1,0,.29,7,7,0,0,1,.25,2.57v23.8c0,1.6,0,3.19,0,4.79v4.74c0,1.6,0,3.2,0,4.79V79.78c0,1.59,0,3.19,0,4.79v4.74c0,1.6,0,3.19,0,4.79C156,98.16,156.17,102.22,155.85,106.27Z"/></g></g></svg>